# xmcd CD database file
#
# Track frame offsets:
#	150
#	23160
#	46979
#	77253
#	106003
#	131415
#	168830
#	185171
#	216346
#	247134
#	289489
#
# Disc length: 4451 seconds
#
# Revision: 1
# Processed by: cddbd v1.5.2PL0 Copyright (c) Steve Scherf et al.
# Submitted via: CDex 1.51
#
DISCID=9711610b
DTITLE=Eric Clapton - Orchestra Night [CD1)
DYEAR=1997
DGENRE=Blues
TTITLE0=Layla Orchestra Intro Reprise
TTITLE1=Crossroads
TTITLE2=Bell Bottom Blues
TTITLE3=Lay Down Sally
TTITLE4=Holy Mother
TTITLE5=I Shot The Sheriff
TTITLE6=Hard Times
TTITLE7=Can't Find My Way Home
TTITLE8=Edge Of Darkness
TTITLE9=Old Love
TTITLE10=Wonderful Tonight
EXTD=YEAR: 1997
EXTT0=
EXTT1=
EXTT2=
EXTT3=
EXTT4=
EXTT5=
EXTT6=
EXTT7=
EXTT8=
EXTT9=
EXTT10=
PLAYORDER=
